<?xml version="1.0" encoding="UTF-8"?>
<svg id="Layer_2" data-name="Layer 2" xmlns="http://www.w3.org/2000/svg" viewBox="0 0 150 36.93">
  <defs>
    <style>
      .cls-1 {
        fill: #fff;
      }
    </style>
  </defs>
  <g id="Layer_1-2" data-name="Layer 1">
    <g id="Layer_2-2" data-name="Layer 2">
      <g id="Layer_1-2" data-name="Layer 1-2">
        <g id="Layer_2-2" data-name="Layer 2-2">
          <g id="Layer_1-2-2" data-name="Layer 1-2-2">
            <path class="cls-1" d="m0,1.61h9.65c7.09,0,11.71,5.2,11.71,13.22s-4.51,13.89-11.95,13.89H0V1.61Zm5.25,22.39h3.95c4.65,0,6.73-3.9,6.73-9.17,0-4.45-1.94-8.5-6.69-8.5h-4v17.67Z"/>
            <path class="cls-1" d="m29,19.75c0,2.56,1.3,5.06,4.1,5.06,2.35,0,3-.94,3.58-2.16h5.62c-.7,2.48-2.95,6.57-9.33,6.57-6.72,0-9.63-5-9.63-10.35,0-6.4,3.26-11,9.84-11,7,0,9.36,5.06,9.36,10.12.04.58.04,1.15,0,1.73l-13.54.03Zm7.87-3.46c0-2.37-1-4.37-3.73-4.37s-3.79,1.85-4.05,4.37h7.78Z"/>
            <path class="cls-1" d="m49.09,20.77c.57,2.71,2.29,3.94,5.06,3.94s4.05-1.27,4.05-3.23c0-2.25-1.16-3.19-5.32-4.25-6.63-1.73-8.25-4.44-8.25-8.09,0-4.73,3.18-7.91,8.91-7.91,6.46,0,9,3.86,9.38,7.83h-5.25c-.27-1.69-1.09-3.51-4.23-3.51-2.14,0-3.41,1-3.41,2.92s1,2.67,5,3.66c7.08,1.88,8.6,4.8,8.6,8.65,0,4.92-3.35,8.34-9.76,8.34s-9.45-3.38-10-8.34h5.22Z"/>
            <path class="cls-1" d="m85.45,18.49c0,6.18-3.71,10.7-10.12,10.7s-10-4.52-10-10.58,3.82-10.74,10.27-10.74c5.95,0,9.85,4.27,9.85,10.62Zm-14.45,0c0,3.93,1.69,6.25,4.4,6.25s4.33-2.32,4.33-6.21c0-4.25-1.58-6.26-4.4-6.26-2.6,0-4.33,2-4.33,6.26v-.04Z"/>
            <path class="cls-1" d="m88.12,36.51V8.32h5.47c.07.55.19,1.81.19,2.56,1.26-2.01,3.53-3.17,5.9-3,4.61,0,8.1,3.86,8.1,10.12,0,7.19-3.94,11.13-8.86,11.13-2.86,0-4.36-1.1-5.15-2.29v9.6l-5.65.07Zm9.71-24.12c-3.18,0-4.32,2.09-4.32,6.18s1,6.14,4,6.14,4.49-2.33,4.49-6.46c0-3.73-1.45-5.86-4.17-5.86Z"/>
            <path class="cls-1" d="m116.12,0v10.78c1.28-1.97,3.54-3.09,5.88-2.91,3.78,0,6.8,2.28,6.8,7.78v13.07h-5.58v-12.24c0-2.63-.94-4-3.3-4-3.15,0-3.75,2.35-3.75,5.46v10.78h-5.65V0h5.6Z"/>
            <path class="cls-1" d="m136.08,8.34c2.08,7.08,3.92,13.29,4.25,15.17h0c.43-2,1.66-6.6,4-15.17h5.67l-6.81,21c-1.92,5.86-3.57,7.59-8.46,7.59-.88,0-1.76-.06-2.63-.16v-4.55c.4,0,1,.08,1.46.08,2.08,0,3.1-.71,3.89-3l-7.45-20.96h6.08Z"/>
          </g>
        </g>
      </g>
    </g>
  </g>
</svg>