<svg xmlns="http://www.w3.org/2000/svg" width="163" height="143.026" viewBox="0 0 163 143.026">
  <path id="quote" d="M0,143.026V81.5A131.015,131.015,0,0,1,3.576,50.182a79.367,79.367,0,0,1,11.1-25.769A56.682,56.682,0,0,1,33.784,6.658Q45.435,0,60.971,0V27.742c-6.288,0-11.467,1.6-15.536,4.685A35.982,35.982,0,0,0,35.448,44.88a56.948,56.948,0,0,0-5.24,17.508A134.718,134.718,0,0,0,28.852,81.5H61.587v61.526H0Zm101.474,0V81.5a131.016,131.016,0,0,1,3.576-31.318,79.367,79.367,0,0,1,11.1-25.769A56.682,56.682,0,0,1,135.258,6.658Q146.91,0,162.445,0V27.742c-6.288,0-11.467,1.6-15.536,4.685a35.982,35.982,0,0,0-9.987,12.453,55.424,55.424,0,0,0-5.24,17.447,134.9,134.9,0,0,0-1.418,19.111H163v61.526H101.474Z" fill="#fff" opacity="0.25"/>
</svg>
